<svg data-name="Layer 1 copy" xmlns="http://www.w3.org/2000/svg" viewBox="0 0 1260.73 212.19"><path d="M-.03 184.87a67.11 67.11 0 019.16-22.88c11.67-18.3 28.64-29.92 48-38.69 19.86-9 41-13.25 62.11-18.22C169.65 93.2 221.46 87.87 271.1 72.37c34.29-10.7 66.28-27.23 100.16-39.06C437.64 10.14 505.5-3.42 576.1.75a485.59 485.59 0 01104.07 18c33.84 9.61 67.45 19.95 101 30.54 10.87 3.44 22.44 4.95 35 2.21 26.53-5.78 53.19-4.93 76.38 9.3-30.34-3.79-60.43 5.53-90.76 11.21-45.5 8.53-90.84 17.9-137 22.37-4.45.43-8.93.47-12.07.62 32.83-8.18 67.32-15 99.74-29.24 5.17-2.26 11.18-2.55 16.73-4 2.13-.58 5.66-.79 4.84-4.15-.54-2.21-3-4-5.56-4.33-31.93-4.35-63-12.71-94.3-20-44.36-10.32-89.23-17.12-135-15.72-24.58.75-49.05 2.79-73.06 8.16-19.71 4.41-39.63 8.64-58.64 15.26-37.69 13.13-75.07 27.29-109.87 47.25-2.34 1.34-7.17 1.65-6 5.64 1.05 3.47 5.27 2.23 8.15 2.17 31.84-.67 63.81.46 93.68-6.06-28.46 18.91-63 19-96.66 21.38-52.35 3.63-105 2.25-157.24 7.9-38.23 4.14-75.88 10.7-108.84 32.58A98.86 98.86 0 00-.03 184.87z"/><path d="M613.69 114.73c12.83-3.3 26-1.13 38.84-2.65 27.54-3.26 55-7 82.4-11.53 38.4-6.32 76.64-13.65 115-20.25a320.68 320.68 0 0156.8-5c36.17.28 66.25 11 80.88 46.83-31.59-26.36-70-21.86-107.4-19.75-41.63 2.34-83.17 6.38-124.75 9.64-40.37 3.15-80.8 3.57-121.27 2.49-6.87-.15-13.61-3.71-20.5.22z" fill="#a50808"/><path d="M1260.73 60.61l-16 17.64" fill="none"/><text transform="translate(309.96 196.65)" font-size="80.91" font-family="PervitinaDex,Pervitina Dex" letter-spacing=".02em">C<tspan x="56.31" y="0" letter-spacing=".01em">ARR</tspan><tspan x="245.15" y="0" fill="#b50d0d" letter-spacing=".01em">ITO</tspan></text></svg>